<?xml version="1.0" standalone="no"?><svg xmlns="http://www.w3.org/2000/svg" viewBox="0 0 1440 320"><path fill="#1e93ab" fill-opacity="1" d="M0,192L0,64L36.9,64L36.9,32L73.8,32L73.8,256L110.8,256L110.8,32L147.7,32L147.7,128L184.6,128L184.6,192L221.5,192L221.5,320L258.5,320L258.5,320L295.4,320L295.4,128L332.3,128L332.3,128L369.2,128L369.2,192L406.2,192L406.2,320L443.1,320L443.1,32L480,32L480,288L516.9,288L516.9,32L553.8,32L553.8,64L590.8,64L590.8,32L627.7,32L627.7,64L664.6,64L664.6,256L701.5,256L701.5,32L738.5,32L738.5,224L775.4,224L775.4,192L812.3,192L812.3,192L849.2,192L849.2,192L886.2,192L886.2,192L923.1,192L923.1,288L960,288L960,192L996.9,192L996.9,192L1033.8,192L1033.8,64L1070.8,64L1070.8,64L1107.7,64L1107.7,160L1144.6,160L1144.6,0L1181.5,0L1181.5,128L1218.5,128L1218.5,160L1255.4,160L1255.4,128L1292.3,128L1292.3,32L1329.2,32L1329.2,160L1366.2,160L1366.2,0L1403.1,0L1403.1,256L1440,256L1440,320L1403.1,320L1403.1,320L1366.2,320L1366.2,320L1329.2,320L1329.2,320L1292.3,320L1292.3,320L1255.4,320L1255.4,320L1218.5,320L1218.5,320L1181.5,320L1181.5,320L1144.6,320L1144.6,320L1107.7,320L1107.7,320L1070.8,320L1070.8,320L1033.8,320L1033.8,320L996.9,320L996.9,320L960,320L960,320L923.1,320L923.1,320L886.2,320L886.2,320L849.2,320L849.2,320L812.3,320L812.3,320L775.4,320L775.4,320L738.5,320L738.5,320L701.5,320L701.5,320L664.6,320L664.6,320L627.7,320L627.7,320L590.8,320L590.8,320L553.8,320L553.8,320L516.9,320L516.9,320L480,320L480,320L443.1,320L443.1,320L406.2,320L406.2,320L369.2,320L369.2,320L332.3,320L332.3,320L295.4,320L295.4,320L258.5,320L258.5,320L221.5,320L221.5,320L184.6,320L184.6,320L147.7,320L147.7,320L110.8,320L110.8,320L73.8,320L73.8,320L36.9,320L36.9,320L0,320L0,320Z"></path></svg>