<?xml version="1.0" standalone="no"?><svg xmlns="http://www.w3.org/2000/svg" viewBox="0 0 1440 320"><path fill="#1e93ab" fill-opacity="1" d="M0,128L0,32L36.9,32L36.9,320L73.8,320L73.8,64L110.8,64L110.8,160L147.7,160L147.7,320L184.6,320L184.6,128L221.5,128L221.5,96L258.5,96L258.5,288L295.4,288L295.4,32L332.3,32L332.3,128L369.2,128L369.2,128L406.2,128L406.2,160L443.1,160L443.1,128L480,128L480,288L516.9,288L516.9,128L553.8,128L553.8,128L590.8,128L590.8,96L627.7,96L627.7,64L664.6,64L664.6,96L701.5,96L701.5,320L738.5,320L738.5,224L775.4,224L775.4,160L812.3,160L812.3,128L849.2,128L849.2,128L886.2,128L886.2,192L923.1,192L923.1,32L960,32L960,0L996.9,0L996.9,224L1033.8,224L1033.8,96L1070.8,96L1070.8,32L1107.7,32L1107.7,160L1144.6,160L1144.6,0L1181.5,0L1181.5,96L1218.5,96L1218.5,224L1255.4,224L1255.4,320L1292.3,320L1292.3,288L1329.2,288L1329.2,256L1366.2,256L1366.2,160L1403.1,160L1403.1,160L1440,160L1440,0L1403.1,0L1403.1,0L1366.2,0L1366.2,0L1329.2,0L1329.2,0L1292.3,0L1292.3,0L1255.4,0L1255.4,0L1218.5,0L1218.5,0L1181.5,0L1181.5,0L1144.6,0L1144.6,0L1107.7,0L1107.7,0L1070.8,0L1070.8,0L1033.8,0L1033.8,0L996.9,0L996.9,0L960,0L960,0L923.1,0L923.1,0L886.2,0L886.2,0L849.2,0L849.2,0L812.3,0L812.3,0L775.4,0L775.4,0L738.5,0L738.5,0L701.5,0L701.5,0L664.6,0L664.6,0L627.7,0L627.7,0L590.8,0L590.8,0L553.8,0L553.8,0L516.9,0L516.9,0L480,0L480,0L443.1,0L443.1,0L406.2,0L406.2,0L369.2,0L369.2,0L332.3,0L332.3,0L295.4,0L295.4,0L258.5,0L258.5,0L221.5,0L221.5,0L184.6,0L184.6,0L147.7,0L147.7,0L110.8,0L110.8,0L73.8,0L73.8,0L36.9,0L36.9,0L0,0L0,0Z"></path></svg>